<svg xmlns="http://www.w3.org/2000/svg" width="120" height="120" viewBox="0 0 120 120">
  <defs>
    <linearGradient id="gradient" x1="0%" y1="0%" x2="100%" y2="100%">
      <stop offset="0%" stop-color="#4F46E5" />
      <stop offset="100%" stop-color="#8B5CF6" />
    </linearGradient>
    <style>
      @keyframes ripple {
        0% {
          transform: scale(0.8);
          opacity: 1;
        }
        100% {
          transform: scale(1.1);
          opacity: 0;
        }
      }
      .ripple-1 {
        animation: ripple 2s infinite ease-out;
      }
      .ripple-2 {
        animation: ripple 2s infinite ease-out;
        animation-delay: 0.5s;
      }
      .ripple-3 {
        animation: ripple 2s infinite ease-out;
        animation-delay: 1s;
      }
    </style>
    <!-- 六边形剪切路径 -->
    <clipPath id="hexagonClip">
      <path d="M60,0 L114,30 L114,90 L60,120 L6,90 L6,30 Z" />
    </clipPath>
  </defs>
  
  <!-- 六边形背景 -->
  <path d="M60,0 L114,30 L114,90 L60,120 L6,90 L6,30 Z" fill="url(#gradient)" />
  
  <!-- 波纹效果 - 使用剪切路径限制在六边形内 -->
  <g clip-path="url(#hexagonClip)">
    <circle class="ripple-1" cx="60" cy="60" r="48" fill="none" stroke="rgba(255,255,255,0.8)" stroke-width="2" />
    <circle class="ripple-2" cx="60" cy="60" r="43" fill="none" stroke="rgba(255,255,255,0.8)" stroke-width="2" />
    <circle class="ripple-3" cx="60" cy="60" r="38" fill="none" stroke="rgba(255,255,255,0.8)" stroke-width="2" />
  </g>
  
  <!-- tpx前缀 -->
  <text x="32" y="45" font-family="Arial, sans-serif" font-size="15" font-weight="bold" fill="white">tpx</text>
  
  <!-- 字母U -->
  <g transform="translate(60, 70)">
    <!-- 左侧竖线 -->
    <rect x="-12" y="-20" width="4" height="30" rx="2" fill="white" />
    
    <!-- 右侧竖线 -->
    <rect x="8" y="-20" width="4" height="30" rx="2" fill="white" />
    
    <!-- 底部弧线 -->
    <path d="M -12,10 Q -12,15 0,15 Q 12,15 12,10" fill="none" stroke="white" stroke-width="4" />
  </g>
  
  <!-- 小圆点装饰 -->
  <circle cx="24" cy="24" r="4" fill="white" />
  <circle cx="96" cy="24" r="4" fill="white" />
  <circle cx="24" cy="96" r="4" fill="white" />
  <circle cx="96" cy="96" r="4" fill="white" />
</svg> 